<?xml version="1.0" encoding="UTF-8"?>
<!DOCTYPE svg PUBLIC "-//W3C//DTD SVG 1.1//EN" "http://www.w3.org/Graphics/SVG/1.1/DTD/svg11.dtd">
<!-- Creator: CorelDRAW 2018 (评估版) -->
<svg xmlns="http://www.w3.org/2000/svg" xml:space="preserve" width="74.9244mm" height="85.5735mm" version="1.1" style="shape-rendering:geometricPrecision; text-rendering:geometricPrecision; image-rendering:optimizeQuality; fill-rule:evenodd; clip-rule:evenodd"
viewBox="0 0 1640.36 1873.5"
 xmlns:xlink="http://www.w3.org/1999/xlink">
 <defs>
  <style type="text/css">
   <![CDATA[
    .fil1 {fill:url(#id0);fill-rule:nonzero}
    .fil3 {fill:url(#id1);fill-rule:nonzero}
    .fil0 {fill:url(#id2);fill-rule:nonzero}
    .fil2 {fill:url(#id3);fill-rule:nonzero}
   ]]>
  </style>
  <linearGradient id="id0" gradientUnits="userSpaceOnUse" x1="32.01" y1="466.4" x2="1231.74" y2="466.4">
   <stop offset="0" style="stop-opacity:1; stop-color:#4BC3AE"/>
   <stop offset="1" style="stop-opacity:1; stop-color:#DDE899"/>
  </linearGradient>
  <linearGradient id="id1" gradientUnits="userSpaceOnUse" x1="1305.65" y1="674.21" x2="1305.65" y2="1191.37">
   <stop offset="0" style="stop-opacity:1; stop-color:#FF8777"/>
   <stop offset="0.45098" style="stop-opacity:1; stop-color:#FFA676"/>
   <stop offset="1" style="stop-opacity:1; stop-color:#FFC674"/>
  </linearGradient>
  <linearGradient id="id2" gradientUnits="userSpaceOnUse" x1="485.47" y1="1.77" x2="485.47" y2="1871.65">
   <stop offset="0" style="stop-opacity:1; stop-color:#1F7CAF"/>
   <stop offset="0.45098" style="stop-opacity:1; stop-color:#40BDC1"/>
   <stop offset="1" style="stop-opacity:1; stop-color:#62FFD4"/>
  </linearGradient>
  <linearGradient id="id3" gradientUnits="userSpaceOnUse" x1="627.91" y1="932.8" x2="627.91" y2="1873.5">
   <stop offset="0" style="stop-opacity:1; stop-color:#EB3F3D"/>
   <stop offset="0.45098" style="stop-opacity:1; stop-color:#C23A7F"/>
   <stop offset="1" style="stop-opacity:1; stop-color:#9934C1"/>
  </linearGradient>
 </defs>
 <g id="图层_x0020_1">
  <metadata id="CorelCorpID_0Corel-Layer"/>
  <path class="fil0" d="M-0 52.49l0 4.47 0 5.48 0 6.45 0 7.39 0 8.3 0 9.16 0 10 0 10.8 0 11.57 0 12.3 0 13 0 13.66 0 14.29 0 14.88 0 15.44 0 15.96 0 16.46 0 16.91 0 17.33 0 17.72 0 18.07 0 18.39 0 18.67 0 18.92 0 19.13 0 19.31 0 19.46 0 19.57 0 19.65 0 19.69 0 19.7 0 19.67 0 19.61 0 19.51 0 19.38 0 19.22 0 19.01 0 18.78 0 18.51 0 18.21 0 17.87 0 17.5 0 17.09 0 16.65 0 16.17 0 15.66 0 15.12 0 14.54 0 13.93 0 13.28 0 12.59 0 11.88 0 11.13 0 10.34 0 9.52 0 8.66 0 7.77 0 6.85 0 5.89 0 4.9 0 3.87 0 2.8 0 1.71 0 0.58 0 0.62 0 1.85 0 3.03 0 4.17 0 5.28 0 6.34 0 7.38 0 8.37 0 9.32 0 10.23 0 11.11 0 11.94 0 12.74 0 13.5 0 14.22 0 14.91 0 15.55 0 16.15 0 16.72 0 17.25 0 17.74 0 18.19 0 18.6 0 18.98 0 19.31 0 19.61 0 19.87 0 20.09 0 20.27 0 20.41 0 20.52 0 20.58 0 20.61 0 20.6 0 20.55 0 20.47 0 20.34 0 20.17 0 19.97 0 19.73 0 19.45 0 19.13 0 18.77 0 18.38 0 17.94 0 17.47 0 16.96 0 16.41 0 15.82 0 15.19 0 14.53 0 13.83 0 13.08 0 12.3 0 11.48 0 10.62 0 9.73 0 8.79 0 7.82 0 6.81 0 5.76 0 4.67 0 3.54 0 2.38c0,21.3 9.41,35.8 24.09,40.72l946.85 -938.85 -938.94 -931.03c-18.9,5.29 -32.01,22.36 -32.01,50.72z"/>
  <path class="fil1" d="M1231.74 674.21l-391.94 -226.28 -15.02 -8.67 -5.14 -2.97 -736.39 -425.18c-18.3,-10.42 -36.53,-13.44 -51.24,-9.33l938.94 931.03 260.8 -258.6z"/>
  <path class="fil2" d="M66.05 1864.4l61.7 -35.63 29.08 -16.79 24.27 -14.01 34.86 -20.13 2.01 -1.16 474.29 -273.85 9.99 -5.77 44.02 -25.41 12.73 -7.35 26.95 -15.56 15.39 -8.89 33.63 -19.42 4.83 -2.79 391.92 -226.26 -260.78 -258.57 -946.85 938.85c11.43,3.83 26.06,1.85 41.96,-7.26z"/>
  <path class="fil3" d="M1231.74 674.21l-260.8 258.6 260.78 258.57 1.73 -1 1.06 -0.61 5.22 -3.01 0.73 -0.42 331.71 -191.5 36.66 -21.16c42.03,-24.47 39.76,-57.56 6.69,-77.91l-4.31 -2.49 -0.08 -0.05c-37.3,-20.09 -379.38,-219.03 -379.38,-219.03z"/>
 </g>
</svg>
